<?xml version="1.0" encoding="UTF-8"?>
<!DOCTYPE svg PUBLIC "-//W3C//DTD SVG 1.1//EN" "http://www.w3.org/Graphics/SVG/1.1/DTD/svg11.dtd">
<!-- Creator: CorelDRAW 2017 -->
<svg xmlns="http://www.w3.org/2000/svg" xml:space="preserve" width="152px" height="208px" version="1.1" style="shape-rendering:geometricPrecision; text-rendering:geometricPrecision; image-rendering:optimizeQuality; fill-rule:evenodd; clip-rule:evenodd"
viewBox="0 0 3.08 4.2"
 xmlns:xlink="http://www.w3.org/1999/xlink">
 <defs>
  <style type="text/css">
   <![CDATA[
    .str0 {stroke:black;stroke-width:0.05;stroke-miterlimit:22.9256}
    .fil0 {fill:black}
    .fil28 {fill:#050101}
    .fil25 {fill:#0B0403}
    .fil15 {fill:#0C0A0A}
    .fil8 {fill:#0E0804}
    .fil41 {fill:#140B05}
    .fil36 {fill:#261816}
    .fil29 {fill:#2B0216}
    .fil42 {fill:#2B2624}
    .fil27 {fill:#2F4435}
    .fil26 {fill:#33493A}
    .fil21 {fill:#361A13}
    .fil32 {fill:#370001}
    .fil31 {fill:#3B3634}
    .fil18 {fill:#412614}
    .fil40 {fill:#4C423D}
    .fil38 {fill:#52433E}
    .fil35 {fill:#5264A8}
    .fil6 {fill:#55331A}
    .fil34 {fill:#574A45}
    .fil30 {fill:#5E876A}
    .fil33 {fill:#62534D}
    .fil16 {fill:#65422A}
    .fil20 {fill:#67452B}
    .fil22 {fill:#6A8D74}
    .fil4 {fill:#85634B}
    .fil12 {fill:#896751}
    .fil17 {fill:#8C6A53}
    .fil39 {fill:#8C7972}
    .fil19 {fill:#980100}
    .fil1 {fill:#9E9EDB}
    .fil37 {fill:#AEB2AF}
    .fil23 {fill:#BCA398}
    .fil10 {fill:#EA0118}
    .fil2 {fill:#EAECED}
    .fil14 {fill:#EC0200}
    .fil24 {fill:#EFD0C2}
    .fil11 {fill:#F05F69}
    .fil13 {fill:#F2D2C4}
    .fil7 {fill:#F7D7C8}
    .fil3 {fill:#FCFCFC}
    .fil9 {fill:#FD0201}
    .fil5 {fill:#FE0200}
   ]]>
  </style>
 </defs>
 <g id="Слой_x0020_1">
  <metadata id="CorelCorpID_0Corel-Layer"/>
  <g id="_1599528434320">
   <path class="fil0 str0" d="M2.66 0.68c0.16,0.32 0.21,0.72 0.2,1.06 0,0.05 0,0.11 0,0.19 0.13,0.22 0.2,0.47 0.2,0.75 0,0.46 -0.21,0.88 -0.54,1.15 -0.01,0.01 -0.03,0.02 -0.04,0.03 -0.06,0.05 -0.13,0.1 -0.2,0.14 0,0 -0.01,0 -0.01,0 -0.01,0.01 -0.02,0.01 -0.03,0.02 0,0 -0.01,0 -0.01,0 0,0 0,0 0,0 -0.1,0.05 -0.2,0.09 -0.31,0.12 -0.12,0.02 -0.24,0.04 -0.36,0.04 -0.11,0 -0.22,-0.01 -0.33,-0.04 -0.04,-0.01 -0.08,-0.02 -0.12,-0.03 -0.03,-0.01 -0.06,-0.02 -0.09,-0.03 -0.01,0 -0.02,-0.01 -0.04,-0.02 0,0 0,0 -0.01,0 -0.06,-0.03 -0.13,-0.06 -0.19,-0.1 0,0 -0.01,0 -0.01,0 -0.01,-0.01 -0.03,-0.02 -0.04,-0.03 -0.41,-0.27 -0.67,-0.73 -0.67,-1.25 0,-0.14 0.01,-0.26 0.04,-0.39 -0.02,-0.07 -0.06,-0.13 -0.07,-0.2 -0.02,-0.07 0.02,-0.2 0.03,-0.28 0.05,-0.32 0.15,-0.66 0.3,-0.96 0.15,-0.27 0.35,-0.49 0.62,-0.64 0.24,-0.13 0.78,-0.27 1.02,-0.12 0.07,0.05 0.09,0.11 0.15,0.16 0.06,0.05 0.15,0.06 0.22,0.1 0.13,0.07 0.22,0.2 0.29,0.33z"/>
   <circle class="fil1" cx="1.56" cy="2.68" r="1.5"/>
   <g>
    <g>
     <path class="fil2" d="M2.28 1.91c0.01,-0.02 0.05,-0.04 0.04,-0.07l-0.08 -0.02c-0.01,0.01 -0.01,0.05 -0.04,0.07 -0.03,0.03 -0.04,0.02 -0.07,0.04l0 0.01 0.15 -0.03z"/>
     <path class="fil2" d="M1.08 1.87l0 0c-0.02,0 -0.04,-0.01 -0.05,0 -0.01,0.01 -0.02,0.04 -0.02,0.05 0.02,0.01 0.06,0.01 0.08,0.01 -0.02,-0.01 -0.05,-0.02 -0.05,-0.04 0.02,0 0.03,0 0.04,-0.01l0 -0.01z"/>
    </g>
    <g>
     <path class="fil3" d="M1.29 1.83l-0.04 -0.01 0.01 0.01 -0.06 0.09 0 0c0.02,0.01 0.17,-0.02 0.18,-0.03l0.01 -0.01 -0.1 -0.05z"/>
     <path class="fil3" d="M2.03 1.92c0,0 -0.05,-0.08 -0.05,-0.08 -0.02,-0.01 -0.08,0.02 -0.1,0.03 -0.1,0.04 0.14,0.05 0.15,0.05z"/>
    </g>
    <g>
     <path class="fil4" d="M0.81 0.67c-0.04,0.03 -0.15,0.23 -0.14,0.27 0,0.01 0.02,0.03 0.04,0.02 0,0 0.07,-0.13 0.08,-0.15 0.01,-0.02 0.04,-0.05 0.05,-0.07 0.01,-0.01 -0.01,-0.09 -0.03,-0.07z"/>
     <path class="fil4" d="M2.54 0.69c0,0 0.01,0.07 0.01,0.08 0,0.05 0.01,0.04 0.02,0.07 0.01,0.02 0.02,0.05 0.03,0.07 0.01,0.01 0.02,0.07 0.04,0.03 0.05,-0.11 -0.09,-0.28 -0.1,-0.25z"/>
     <path class="fil4" d="M2.6 0.98c0,-0.03 -0.03,-0.11 -0.05,-0.13 -0.02,0.01 -0.02,0.05 -0.04,0.07 -0.01,0.03 -0.03,0.05 -0.04,0.07 -0.04,0.07 0.12,0.01 0.13,-0.01z"/>
    </g>
    <g>
     <path class="fil5" d="M1.25 3.31c-0.03,0 -0.23,0.04 -0.25,0.07 0,0.01 0.04,0.1 0.04,0.13 0.03,0.18 0.02,0.13 0.02,0.31 0,0.04 -0.02,0.1 -0.02,0.14 0,0.07 -0.01,0.07 0.04,0.11 0.02,0.01 0.03,0.03 0.04,0.03 0.04,0.02 0.08,0.03 0.12,0.03 0.05,0 0.11,-0.02 0.19,-0.04 0.21,-0.06 0.27,-0.06 0.48,0.03 0,0 0.01,0 0.02,0.01 0.11,-0.03 0.21,-0.07 0.31,-0.11 0,-0.04 0,-0.07 -0.01,-0.12 0,-0.1 -0.02,-0.17 -0.01,-0.28 0.01,-0.04 0.01,-0.08 0.02,-0.13 0.01,-0.04 0.03,-0.07 0.04,-0.11l-0.1 -0.04 -0.25 -0.07c-0.03,0.02 -0.01,0.04 -0.11,0.1 -0.03,0.02 -0.12,0.03 -0.16,0.03 -0.04,0.01 -0.13,-0.01 -0.17,-0.02 -0.02,-0.01 -0.05,-0.03 -0.06,-0.04 -0.03,-0.01 -0.04,-0.04 -0.05,-0.05l-0.13 0.02z"/>
     <path class="fil5" d="M0.98 4.05c0,-0.05 0.01,-0.12 0.02,-0.15 0,-0.05 0.01,-0.07 0,-0.11 0,-0.03 -0.03,-0.08 -0.03,-0.11l0.04 -0.01c0.01,0 0.02,0.04 0.03,0.05 0.01,-0.03 0,-0.14 -0.01,-0.18 -0.01,-0.02 -0.03,-0.13 -0.05,-0.15 -0.01,0 -0.06,0.04 -0.08,0.05 -0.01,0.01 -0.04,0.07 -0.04,0.09 -0.05,0.13 -0.05,0.28 -0.07,0.42 0.06,0.04 0.13,0.07 0.19,0.1z"/>
    </g>
    <path class="fil6" d="M0.86 0.77c0.01,0 0.08,0.1 0.09,0.11 0.12,0.1 0.24,0.12 0.28,0.15 0.03,0.01 0,0.04 -0.02,0.05 -0.04,0.02 -0.05,0.02 -0.09,0.02 -0.11,0.02 -0.23,-0.03 -0.33,-0.08 -0.07,-0.03 -0.05,-0.06 -0.02,-0.12 0.02,-0.03 0.07,-0.12 0.09,-0.13zm1.74 0.21c-0.01,0.02 -0.17,0.08 -0.13,0.01 0.01,-0.02 0.03,-0.04 0.04,-0.07 0.02,-0.02 0.02,-0.06 0.04,-0.07 0.02,0.02 0.05,0.1 0.05,0.13zm-1.79 -0.31c0.02,-0.02 0.04,0.06 0.03,0.07 -0.01,0.02 -0.04,0.05 -0.05,0.07 -0.01,0.02 -0.08,0.15 -0.08,0.15 -0.02,0.01 -0.04,-0.01 -0.04,-0.02 -0.01,-0.04 0.1,-0.24 0.14,-0.27zm1.73 0.02c0.01,-0.03 0.15,0.14 0.1,0.25 -0.02,0.04 -0.03,-0.02 -0.04,-0.03 -0.01,-0.02 -0.02,-0.05 -0.03,-0.07 -0.01,-0.03 -0.02,-0.02 -0.02,-0.07 0,-0.01 -0.01,-0.08 -0.01,-0.08zm-1.74 -0.19c0.03,-0.01 0.01,0.12 0,0.13 -0.03,0.03 -0.04,0.05 -0.06,0.08 -0.02,0.02 -0.05,0.07 -0.06,0.1 0,0.01 -0.04,0.1 -0.05,0.08 -0.05,-0.07 0,-0.16 0.03,-0.22 0.02,-0.03 0.12,-0.15 0.14,-0.17zm0.82 -0.42l0 0c0,0 0.11,0.04 0.12,0.05 0.02,0.01 0.07,0.05 0.1,0.07 0.04,0.04 0.15,0.11 0.17,0.17 -0.05,-0.03 -0.13,-0.1 -0.19,-0.14 -0.07,-0.05 -0.15,-0.08 -0.23,-0.11 -0.16,-0.06 -0.38,0.05 -0.51,0.13 -0.13,0.08 -0.25,0.21 -0.36,0.32 -0.05,0.05 -0.11,0.12 -0.14,0.18 -0.04,0.06 -0.1,0.15 -0.14,0.2 -0.02,-0.01 0.13,-0.26 0.15,-0.29 0.03,-0.04 0.06,-0.08 0.1,-0.12 0.01,-0.02 0.09,-0.11 0.1,-0.12 -0.2,0.13 -0.41,0.5 -0.49,0.73 -0.08,0.21 -0.16,0.5 -0.18,0.73 -0.01,0.04 -0.06,0.24 0,0.25 0,-0.01 0.02,-0.19 0.02,-0.2 0.01,-0.08 0.02,-0.13 0.04,-0.2 0.02,-0.09 0.05,-0.28 0.1,-0.36 0.01,0.01 -0.06,0.26 -0.06,0.3 -0.02,0.09 -0.05,0.24 -0.05,0.33 0,0.05 -0.01,0.11 -0.01,0.17 0,0.06 -0.01,0.13 0,0.19 0.01,0.03 0.13,0.18 0.18,0.2l0.09 -0.26c0.01,0.04 -0.01,0.24 -0.01,0.3 0.01,0.09 0.06,0.13 0.12,0.19 0.06,0.05 0.32,0.24 0.39,0.24 -0.01,-0.1 -0.02,-0.19 -0.03,-0.28 0,-0.1 0,-0.19 0,-0.29 0,-0.2 0.02,-0.37 0.05,-0.56 0.06,-0.29 0.19,-0.61 0.36,-0.86 0.09,-0.13 0.17,-0.2 0.3,-0.29 0.09,-0.07 0.13,-0.05 0.22,0 0.03,0.02 0.06,0.03 0.09,0.06 0.03,0.02 0.05,0.05 0.09,0.07 0.03,0.01 0.08,0.01 0.12,0.03 0.1,0.03 0.2,0.1 0.27,0.18 0.05,0.05 0.25,0.33 0.22,0.38l-0.02 -0.04 -0.02 0.21c0.01,0.01 0.08,-0.02 0.14,0.04 0.04,0.05 0.04,0.08 0.04,0.14 0,0.09 -0.04,0.21 -0.08,0.29 -0.03,0.09 -0.07,0.17 -0.12,0.24 -0.05,0.06 -0.07,0.02 -0.09,0.1 -0.01,0.03 -0.04,0.12 -0.04,0.15 0.06,-0.03 0.18,-0.13 0.23,-0.18 0.15,-0.13 0.11,-0.08 0.13,-0.28 0.03,-0.21 0.04,-0.55 0,-0.76 -0.01,-0.06 0,-0.12 -0.01,-0.19 -0.03,-0.16 -0.07,-0.31 -0.15,-0.47 -0.08,-0.17 -0.23,-0.35 -0.43,-0.38 0,0.06 0.01,0.11 0.02,0.17 0,0.01 -0.01,0.21 -0.03,0.1 0,-0.05 -0.02,-0.1 -0.03,-0.15 -0.01,-0.05 -0.02,-0.1 -0.04,-0.15 -0.09,-0.2 -0.29,-0.28 -0.5,-0.23z"/>
    <path class="fil7" d="M1.3 2.66l0 0c0.05,0 0.11,-0.03 0.16,-0.05 0.1,-0.04 0.11,0.01 0.18,0 0.09,-0.01 0.08,-0.03 0.17,0.01 0.03,0.01 0.05,0.02 0.08,0.03 0.05,0.01 0.05,-0.03 0.08,-0.02 0.01,0.04 -0.05,0.05 -0.07,0.07 -0.01,0.02 -0.04,0.06 -0.06,0.07 -0.08,0.06 -0.35,0.07 -0.45,0 -0.04,-0.03 -0.04,-0.04 -0.07,-0.07 -0.01,-0.01 -0.09,-0.03 -0.06,-0.06l0 -0.01 0.04 0.03zm0.32 -0.09c0.02,0.01 0.03,0 0.05,0 0,0.01 -0.01,0.01 -0.02,0.02 -0.03,0.01 -0.04,0.01 -0.06,0 -0.01,-0.01 -0.02,-0.01 -0.02,-0.02 0.02,-0.01 0.03,0 0.05,0zm0.14 -0.23c-0.01,-0.01 -0.01,-0.01 -0.01,-0.02 -0.01,-0.01 -0.01,0 -0.01,-0.01 0.02,-0.01 0.03,0 0.04,0.01 0.02,0.02 0.04,0.05 0.02,0.07 0,0.01 -0.02,0.02 -0.02,0.02 -0.01,0.02 -0.03,0.01 -0.06,0.02 -0.08,0.04 -0.03,0.01 -0.1,0.01 -0.02,0 -0.04,0.01 -0.06,0.01 -0.01,0 -0.1,-0.03 -0.1,-0.03 -0.03,-0.03 -0.05,-0.06 -0.01,-0.09l0 0 0.05 -0.04 0.01 0.01 -0.03 0.06c0.01,0.01 0.05,0.01 0.07,0.02 0.11,0.02 0.11,0 0.21,-0.02l0 -0.02zm0.27 -0.42c-0.01,0 -0.25,-0.01 -0.15,-0.05 0.02,-0.01 0.08,-0.04 0.1,-0.03 0,0 0.05,0.08 0.05,0.08zm-0.74 -0.09l0.1 0.05 -0.01 0.01c-0.01,0.01 -0.16,0.04 -0.18,0.03l0 0 0.06 -0.09 -0.01 -0.01 0.04 0.01zm0.77 -0.08c0.06,0 0.09,-0.02 0.21,0.01 0.02,0 0.18,0.05 0.19,0.05 -0.01,0.03 -0.07,0.03 -0.08,0.04 -0.01,0 -0.02,0.05 -0.07,0.07 -0.02,0.02 -0.07,0.03 -0.1,0.03 -0.03,0.02 -0.25,0 -0.26,-0.02l0.11 0 -0.04 -0.04c0.01,0 0.05,0 0.07,-0.01l0 -0.01 -0.08 0 -0.03 -0.05 0 -0.01 -0.13 0.06c0,-0.05 0.17,-0.12 0.21,-0.12zm-0.16 0.01c0.02,-0.05 0.16,-0.08 0.21,-0.08 0.05,0 0.2,0.02 0.22,0.07 0,0 -0.08,-0.03 -0.1,-0.03 -0.07,-0.01 -0.17,-0.01 -0.24,0.01 -0.02,0 -0.08,0.03 -0.09,0.03zm0.24 -0.23c0.05,-0.01 0.11,0 0.16,0.03 0.01,0 0.15,0.09 0.09,0.07 -0.06,-0.01 -0.08,-0.04 -0.16,-0.04 -0.07,0 -0.1,0 -0.17,0.02 -0.04,0.01 -0.12,0.03 -0.16,0.04 -0.12,0.06 -0.1,0 -0.06,-0.02 0.06,-0.05 0.22,-0.09 0.3,-0.1zm-0.9 -0.28c-0.01,0.03 -0.05,0.09 -0.07,0.14 -0.01,0.03 -0.05,0.11 -0.05,0.14 0,0 0.08,0.02 0.09,0.02 0.03,0.01 0.06,0.02 0.09,0.03 0.03,0.01 0.13,0.04 0.13,0.09 -0.03,0.02 -0.27,-0.08 -0.34,-0.07l-0.02 0.08c0.04,0.01 0.09,0 0.16,0.02 0.01,0 0.11,0.04 0.1,0.06l-0.14 -0.05 -0.13 0 -0.01 0.03c0.01,0 0.1,0.01 0.12,0.01 0.02,0 0.04,0.01 0.06,0.01 0.01,0 0.02,0.02 0.04,0.02 0.02,0 0.11,0.06 0.11,0.09l0 0 -0.09 -0.04 -0.04 -0.02 0 0.01c-0.01,0.02 -0.03,0.09 -0.06,0.09l-0.02 0.02 0.1 -0.01 0 0.01 -0.05 0.01 -0.22 0.02c-0.03,0.03 -0.05,0.53 -0.05,0.61 0,0.14 -0.01,0.14 0.09,0.24 0.05,0.06 0.12,0.1 0.19,0.15 0.15,0.09 0.24,0.22 0.46,0.19 0.13,-0.03 0.3,-0.17 0.41,-0.25 0.33,-0.25 0.34,-0.59 0.37,-0.96 0.01,-0.16 0.09,-0.46 0.07,-0.59 -0.01,-0.06 -0.09,-0.16 -0.13,-0.2 -0.07,-0.07 -0.11,-0.1 -0.19,-0.15 -0.04,-0.01 -0.09,-0.04 -0.14,-0.05 -0.06,-0.01 -0.12,-0.01 -0.17,-0.03 -0.02,0 -0.04,-0.02 -0.07,-0.02 -0.02,-0.01 -0.05,-0.02 -0.07,-0.02 -0.07,-0.02 -0.11,-0.02 -0.18,-0.02 -0.11,0 -0.3,0.29 -0.35,0.39z"/>
    <path class="fil8" d="M1.77 3.18l0.01 0.06c-0.04,0.03 -0.24,0.04 -0.26,-0.01 -0.01,-0.04 0.02,-0.03 0.05,-0.02 0.02,0 0.05,0 0.07,0 0.03,0 0.13,-0.03 0.13,-0.03zm0.89 -1.14l0 0c0,0.02 -0.02,0.05 -0.03,0.09 -0.01,0.02 -0.1,0.22 -0.15,0.22 -0.01,-0.03 0,-0.04 0.01,-0.06 0.01,-0.1 0,-0.05 0.04,-0.1 0.02,-0.01 0.03,-0.03 0.03,-0.05 -0.01,0 -0.02,0.01 -0.03,0.02 -0.01,0.01 -0.01,0.02 -0.03,0.01 0,0 0,-0.04 0,-0.05 0.01,-0.01 0.01,0 0.01,-0.02 0,-0.01 0,-0.02 0,-0.03 0,-0.02 0.01,-0.03 0.01,-0.04 0,-0.02 0,-0.04 0,-0.06 0,-0.02 0.01,-0.04 0.01,-0.05 0,-0.02 0,-0.04 0,-0.06 0,-0.01 0.05,-0.05 0.06,-0.05 0,-0.02 0.03,-0.03 0.05,-0.03 0.02,0 0.02,0.02 0.03,0.04 0.02,-0.03 -0.02,-0.07 -0.05,-0.06 -0.05,0.01 -0.06,0.04 -0.08,0.04 -0.01,-0.03 0.01,-0.04 0.01,-0.05 0,-0.03 -0.01,-0.05 0.05,-0.07 0.02,0 0.05,0 0.07,0.02 0.07,0.04 0.05,0.13 0.04,0.2 -0.01,0.02 -0.02,0.05 -0.02,0.07 -0.01,0.02 -0.02,0.04 -0.02,0.07l-0.01 0zm-0.44 -1.04c0.08,0.05 0.12,0.08 0.19,0.15 0.04,0.04 0.12,0.14 0.13,0.2 0.02,0.13 -0.06,0.43 -0.07,0.59 -0.03,0.37 -0.04,0.71 -0.37,0.96 -0.11,0.08 -0.28,0.22 -0.41,0.25 -0.22,0.03 -0.31,-0.1 -0.46,-0.19 -0.07,-0.05 -0.14,-0.09 -0.19,-0.15 -0.1,-0.1 -0.09,-0.1 -0.09,-0.24 0,-0.08 0.02,-0.58 0.05,-0.61l0.22 -0.02 -0.21 -0.01c-0.01,0 0,-0.02 0,-0.03 0,-0.02 0,-0.02 0.01,-0.04 -0.01,-0.07 0.03,-0.06 0.08,-0.06 0.03,0 0.1,-0.01 0.13,0.01l0 0.04c0,-0.01 0,-0.04 0.01,-0.04l0.1 0.03 0 -0.01 -0.07 -0.05c-0.02,0 -0.03,-0.02 -0.04,-0.02 -0.02,0 -0.04,-0.01 -0.06,-0.01 -0.02,0 -0.11,-0.01 -0.12,-0.01l0.01 -0.03 0.13 0 0.12 0.03c0,-0.01 -0.09,-0.04 -0.1,-0.04 -0.06,-0.02 -0.1,-0.01 -0.15,-0.02 0,0 0.07,-0.21 0.08,-0.23 0.01,-0.03 0.08,-0.19 0.1,-0.2 0.05,-0.1 0.24,-0.39 0.35,-0.39 0.03,-0.03 0.17,0.01 0.21,0.01l0 0 -0.2 -0.05c0,0 0.05,-0.04 0.06,-0.04 0.04,-0.03 0.05,-0.02 0.09,-0.01 0.06,0.02 0.1,0.05 0.15,0.09 0.02,0.01 0.04,0.03 0.06,0.05 0.02,0.02 0.06,0.02 0.09,0.03 0.03,0 0.16,0.04 0.17,0.06zm-1.63 -0.34c-0.02,0.03 -0.17,0.28 -0.15,0.29 0.04,-0.05 0.1,-0.14 0.14,-0.2 0.03,-0.06 0.09,-0.13 0.14,-0.18 0.11,-0.11 0.23,-0.24 0.36,-0.32 0.13,-0.08 0.35,-0.19 0.51,-0.13 0.08,0.03 0.16,0.06 0.23,0.11 0.06,0.04 0.14,0.11 0.19,0.14 -0.02,-0.06 -0.13,-0.13 -0.17,-0.17 -0.03,-0.02 -0.08,-0.06 -0.1,-0.07 -0.01,-0.01 -0.12,-0.05 -0.12,-0.05l0 0c0.21,-0.05 0.41,0.03 0.5,0.23 0.02,0.05 0.03,0.1 0.04,0.15 0.01,0.05 0.03,0.1 0.03,0.15 0.02,0.11 0.03,-0.09 0.03,-0.1 -0.01,-0.06 -0.02,-0.11 -0.02,-0.17 0.2,0.03 0.35,0.21 0.43,0.38 0.08,0.16 0.12,0.31 0.15,0.47 0.01,0.07 0,0.13 0.01,0.19 0.04,0.21 0.03,0.55 0,0.76 -0.02,0.2 0.02,0.15 -0.13,0.28 -0.05,0.05 -0.17,0.15 -0.23,0.18 0,-0.03 0.03,-0.12 0.04,-0.15 0.02,-0.08 0.04,-0.04 0.09,-0.1 0.05,-0.07 0.09,-0.15 0.12,-0.24 0.04,-0.08 0.08,-0.2 0.08,-0.29 0,-0.06 0,-0.09 -0.04,-0.14 -0.06,-0.06 -0.13,-0.03 -0.14,-0.04l0.02 -0.21 0.02 0.04c0.03,-0.05 -0.17,-0.33 -0.22,-0.38 -0.07,-0.08 -0.17,-0.15 -0.27,-0.18 -0.04,-0.02 -0.09,-0.02 -0.12,-0.03 -0.04,-0.02 -0.06,-0.05 -0.09,-0.07 -0.03,-0.03 -0.06,-0.04 -0.09,-0.06 -0.09,-0.05 -0.13,-0.07 -0.22,0 -0.13,0.09 -0.21,0.16 -0.3,0.29 -0.17,0.25 -0.3,0.57 -0.36,0.86 -0.03,0.19 -0.05,0.36 -0.05,0.56 0,0.1 0,0.19 0,0.29 0.01,0.09 0.02,0.18 0.03,0.28 -0.07,0 -0.33,-0.19 -0.39,-0.24 -0.06,-0.06 -0.11,-0.1 -0.12,-0.19 0,-0.06 0.02,-0.26 0.01,-0.3l-0.09 0.26c-0.05,-0.02 -0.17,-0.17 -0.18,-0.2 -0.01,-0.06 0,-0.13 0,-0.19 0,-0.06 0.01,-0.12 0.01,-0.17 0,-0.09 0.03,-0.24 0.05,-0.33 0,-0.04 0.07,-0.29 0.06,-0.3 -0.05,0.08 -0.08,0.27 -0.1,0.36 -0.02,0.07 -0.03,0.12 -0.04,0.2 0,0.01 -0.02,0.19 -0.02,0.2 -0.06,-0.01 -0.01,-0.21 0,-0.25 0.02,-0.23 0.1,-0.52 0.18,-0.73 0.08,-0.23 0.29,-0.6 0.49,-0.73 -0.01,0.01 -0.09,0.1 -0.1,0.12 -0.04,0.04 -0.07,0.08 -0.1,0.12zm0.33 2.44l0.08 0.03c0.01,-0.03 0,-0.04 -0.01,-0.07 0,-0.01 0.01,-0.02 0,-0.03 0,-0.01 -0.01,-0.02 -0.01,-0.04 0,-0.04 -0.02,-0.11 -0.01,-0.14 0.03,-0.01 0.06,0.04 0.09,0.06 0.06,0.04 0.25,0.17 0.27,0.2l0.15 0.08c-0.01,0.03 -0.04,0 -0.08,0.03 -0.03,0.02 -0.04,0.03 -0.08,0.03 -0.05,0 -0.14,0.02 -0.19,0.03 -0.11,0.03 -0.23,0.06 -0.29,0.16 -0.06,0.1 -0.08,0.26 -0.09,0.37 0,0.04 0,0.08 -0.01,0.11 0.02,0.01 0.03,0.02 0.04,0.03 0.01,-0.06 0.01,-0.13 0.02,-0.19 0.01,-0.07 0.02,-0.14 0.04,-0.21 0.02,-0.09 0.03,-0.09 0.1,-0.15 0.18,-0.12 0.36,-0.08 0.47,-0.14 0.05,-0.04 0.05,0 0.08,0.01 0.1,0.04 0.12,0.04 0.22,0.03 0.03,0.01 0.09,-0.01 0.11,-0.03 0.03,-0.03 0.08,-0.03 0.11,0l0.25 0.07 0.15 0.06c0,0.01 0.08,0.05 0.08,0.05 0,0.01 0.03,0.08 0.04,0.09 0.01,0.07 0.02,0.14 0.03,0.22 0.01,0.03 0.01,0.06 0.01,0.09 0.01,-0.01 0.03,-0.02 0.04,-0.03 0,0 0,-0.01 0,-0.01 -0.02,-0.1 -0.03,-0.28 -0.09,-0.36 -0.06,-0.11 -0.17,-0.14 -0.28,-0.17 -0.06,-0.01 -0.12,-0.02 -0.18,-0.04 -0.02,-0.01 -0.07,-0.03 -0.08,-0.03 -0.03,0 -0.08,0 -0.09,-0.01 0,-0.05 0.31,-0.24 0.36,-0.28 0.07,-0.05 0.09,-0.1 0.15,-0.16 0.06,-0.06 0.11,-0.09 0.18,-0.13 0.09,-0.06 0.3,-0.22 0.33,-0.31 0.04,-0.11 0.04,-0.45 0.04,-0.58 0.01,-0.35 -0.04,-0.75 -0.2,-1.07 -0.06,-0.13 -0.16,-0.26 -0.29,-0.33 -0.07,-0.04 -0.16,-0.05 -0.22,-0.1 -0.06,-0.05 -0.08,-0.11 -0.15,-0.16 -0.24,-0.15 -0.78,-0.01 -1.02,0.12 -0.27,0.15 -0.47,0.37 -0.62,0.64 -0.15,0.3 -0.25,0.64 -0.3,0.96 -0.01,0.08 -0.04,0.21 -0.03,0.28 0.01,0.07 0.06,0.14 0.08,0.23 0.03,0.13 0.02,0.12 0.11,0.21 0.02,0.02 0.05,0.06 0.08,0.08 0.02,0.02 0.07,0.02 0.07,0.02 0.01,0.06 -0.01,0.04 0.03,0.1 0.02,0.02 0.04,0.04 0.06,0.07 0.07,0.1 0.39,0.3 0.45,0.31z"/>
    <path class="fil9" d="M2.29 3.75l-0.01 0.04c0,0.07 0.01,0.12 0.01,0.2 0.07,-0.04 0.14,-0.09 0.2,-0.14 0,-0.03 0,-0.06 -0.01,-0.09 -0.01,-0.08 -0.02,-0.15 -0.03,-0.22 -0.01,-0.01 -0.04,-0.08 -0.04,-0.09 0,0 -0.08,-0.04 -0.08,-0.05l-0.03 0c-0.04,0.06 -0.06,0.25 -0.05,0.33l0.03 -0.06 0 0 0.04 0.01 0 0 -0.03 0.07z"/>
    <path class="fil10" d="M1.04 3.96l0 0.1c-0.01,0 0,0.01 0,0.01 0.02,0.01 0.05,0.02 0.08,0.03 -0.01,0 -0.02,-0.02 -0.04,-0.03 -0.05,-0.04 -0.04,-0.04 -0.04,-0.11zm1.21 0.05c0,-0.06 -0.01,-0.11 -0.02,-0.17 0,-0.03 0.01,-0.07 0.02,-0.1 0.01,-0.02 0.02,-0.08 0.06,-0.06l0 0 -0.02 0.07 0.03 -0.07 0 0 -0.04 -0.01 0 0 -0.03 0.06c-0.01,-0.08 0.01,-0.27 0.05,-0.33l0.03 0 -0.15 -0.06 0.1 0.04c-0.01,0.04 -0.03,0.07 -0.04,0.11 -0.01,0.05 -0.01,0.09 -0.02,0.13 -0.01,0.11 0.01,0.18 0.01,0.28 0.01,0.05 0.01,0.08 0.01,0.12 0,-0.01 0,-0.01 0.01,-0.01zm-0.32 0.12c-0.01,-0.01 -0.02,-0.01 -0.02,-0.01 -0.21,-0.09 -0.27,-0.09 -0.48,-0.03 -0.08,0.02 -0.14,0.04 -0.19,0.04 0.11,0.03 0.22,0.04 0.33,0.04 0.12,0 0.25,-0.01 0.36,-0.04z"/>
    <path class="fil11" d="M1.3 2.66c0.03,0.03 0.13,0 0.17,0 0.06,0 0.1,0.02 0.17,0.02 0.07,0 0.08,-0.03 0.17,-0.02 0.03,0.01 0.06,0.02 0.09,0.01 0.02,0 0.04,-0.03 0.06,-0.03 0.02,0.02 -0.04,0.04 -0.05,0.05 -0.02,0.01 -0.08,0 -0.1,0 -0.09,0 -0.19,0.05 -0.29,0.01 -0.03,-0.01 -0.06,-0.01 -0.1,-0.01 -0.02,0 -0.18,0.01 -0.16,-0.05l0.01 0 0.03 0.02 -0.04 -0.03 0 0.01c-0.03,0.03 0.05,0.05 0.06,0.06 0.03,0.03 0.03,0.04 0.07,0.07 0.1,0.07 0.37,0.06 0.45,0 0.02,-0.01 0.05,-0.05 0.06,-0.07 0.02,-0.02 0.08,-0.03 0.07,-0.07 -0.03,-0.01 -0.03,0.03 -0.08,0.02 -0.03,-0.01 -0.05,-0.02 -0.08,-0.03 -0.09,-0.04 -0.08,-0.02 -0.17,-0.01 -0.07,0.01 -0.08,-0.04 -0.18,0 -0.05,0.02 -0.11,0.05 -0.16,0.05z"/>
    <path class="fil12" d="M0.86 0.77c-0.02,0.01 -0.07,0.1 -0.09,0.13 -0.03,0.06 -0.05,0.09 0.02,0.12 0.1,0.05 0.22,0.1 0.33,0.08 0.04,0 0.05,0 0.09,-0.02 0.02,-0.01 0.05,-0.04 0.02,-0.05 -0.04,-0.03 -0.16,-0.05 -0.28,-0.15 -0.01,-0.01 -0.08,-0.11 -0.09,-0.11z"/>
    <path class="fil13" d="M2.59 1.81c-0.01,0.01 -0.04,0.03 -0.05,0.05 -0.01,0.02 -0.02,0.17 -0.02,0.2 -0.01,0.03 -0.01,0.07 -0.01,0.1 0.01,0 0.02,-0.02 0.03,-0.03 0.03,-0.02 0.03,-0.03 0.05,-0.03 0,0.03 -0.04,0.08 -0.06,0.1 -0.02,0.02 -0.03,0.02 -0.03,0.05 0,0.03 -0.01,0.04 -0.01,0.07 0.02,0 0.02,0 0.02,-0.01 0.01,0 0.01,0 0.02,-0.01 0,-0.01 0.01,-0.02 0.02,-0.03 0.02,-0.03 0.06,-0.12 0.07,-0.15 0.01,-0.02 0.03,-0.08 0.04,-0.08l0 0c0,-0.02 0.01,-0.05 0.02,-0.07 0.01,-0.04 0.04,-0.16 0.03,-0.2 -0.01,-0.03 -0.01,-0.04 -0.03,-0.06 -0.04,-0.04 -0.11,-0.01 -0.12,0 -0.01,0.02 -0.01,0.05 -0.01,0.07 0.02,0 0.05,-0.05 0.1,-0.03 0.03,0.02 0.05,0.07 0.02,0.1 -0.01,-0.02 0,-0.04 -0.02,-0.06 -0.03,-0.02 -0.05,0.01 -0.06,0.02z"/>
    <path class="fil14" d="M1.71 3.3c-0.06,0.03 -0.19,0 -0.24,-0.03 -0.05,-0.04 -0.05,0 -0.1,0.02 -0.03,0 -0.1,0.01 -0.12,0.02l0.13 -0.02c0.01,0.01 0.02,0.04 0.05,0.05 0.01,0.01 0.04,0.03 0.06,0.04 0.04,0.01 0.13,0.03 0.17,0.02 0.04,0 0.13,-0.01 0.16,-0.03 0.1,-0.06 0.08,-0.08 0.11,-0.1 -0.03,-0.03 -0.08,-0.03 -0.11,0 -0.02,0.02 -0.08,0.04 -0.11,0.03z"/>
    <path class="fil15" d="M2.06 1.75c-0.01,0.01 -0.16,0.04 -0.17,0.09l0.1 -0.03 0.02 0.05 -0.01 -0.05c0.02,-0.02 0.11,-0.01 0.14,-0.01 0.02,0 0.04,-0.01 0.07,0.01 0.03,0.01 0.03,-0.01 0.05,0.01l0.07 0.02c0,0.03 -0.03,0.07 -0.05,0.07 -0.01,0.04 -0.24,0.02 -0.27,0.03l0 0 0.2 0.01c0.03,0 0.08,-0.01 0.1,-0.03 0.05,-0.02 0.06,-0.07 0.07,-0.07 0.01,-0.01 0.07,-0.01 0.08,-0.04 -0.01,0 -0.17,-0.05 -0.19,-0.05 -0.12,-0.03 -0.15,-0.01 -0.21,-0.01z"/>
    <path class="fil16" d="M2.14 1.53c-0.08,0.01 -0.24,0.05 -0.3,0.1 -0.04,0.02 -0.06,0.08 0.06,0.02 0.04,-0.01 0.12,-0.03 0.16,-0.04 0.07,-0.02 0.1,-0.02 0.17,-0.02 0.08,0 0.1,0.03 0.16,0.04 0.06,0.02 -0.08,-0.07 -0.09,-0.07 -0.05,-0.03 -0.11,-0.04 -0.16,-0.03z"/>
    <path class="fil17" d="M0.8 0.5c-0.02,0.02 -0.12,0.14 -0.14,0.17 -0.03,0.06 -0.08,0.15 -0.03,0.22 0.01,0.02 0.05,-0.07 0.05,-0.08 0.01,-0.03 0.04,-0.08 0.06,-0.1 0.02,-0.03 0.03,-0.05 0.06,-0.08 0.01,-0.01 0.03,-0.14 0,-0.13z"/>
    <path class="fil18" d="M1.59 0.86c0.07,0 0.11,0 0.18,0.02 0.02,0 0.05,0.01 0.07,0.02 0.03,0 0.05,0.02 0.07,0.02 0.05,0.02 0.11,0.02 0.17,0.03 0.05,0.01 0.1,0.04 0.14,0.05 -0.01,-0.02 -0.14,-0.06 -0.17,-0.06 -0.03,-0.01 -0.07,-0.01 -0.09,-0.03 -0.02,-0.02 -0.04,-0.04 -0.06,-0.05 -0.05,-0.04 -0.09,-0.07 -0.15,-0.09 -0.04,-0.01 -0.05,-0.02 -0.09,0.01 -0.01,0 -0.06,0.04 -0.06,0.04l0.2 0.05 0 0c-0.04,0 -0.18,-0.04 -0.21,-0.01z"/>
    <path class="fil19" d="M0.79 3.95c0.02,-0.14 0.02,-0.29 0.07,-0.42 0,-0.02 0.03,-0.08 0.04,-0.09 0.02,-0.01 0.07,-0.05 0.08,-0.05 0.02,0.02 0.04,0.13 0.05,0.15 0.01,0.04 0.02,0.15 0.01,0.18 -0.01,-0.01 -0.02,-0.05 -0.03,-0.05l-0.04 0.01c0,0.03 0.03,0.08 0.03,0.11 0.01,0.04 0,0.06 0,0.11 -0.01,0.03 -0.02,0.1 -0.02,0.15 0.01,0 0.01,0 0.01,0.01 -0.01,-0.04 -0.01,-0.09 0.01,-0.12 -0.01,-0.04 0.02,-0.08 0.02,-0.13 0,-0.04 -0.04,-0.09 -0.04,-0.11 0,-0.03 0.03,-0.02 0.04,0.01 0.04,0.07 0.04,0.09 0.02,0.18l0 0.17 0 -0.1c0,-0.04 0.02,-0.1 0.02,-0.14 0,-0.18 0.01,-0.13 -0.02,-0.31 0,-0.03 -0.04,-0.12 -0.04,-0.13 0.02,-0.03 0.22,-0.07 0.25,-0.07 0.02,-0.01 0.09,-0.02 0.12,-0.02 0.05,-0.02 0.05,-0.06 0.1,-0.02 0.05,0.03 0.18,0.06 0.24,0.03 -0.1,0.01 -0.12,0.01 -0.22,-0.03 -0.03,-0.01 -0.03,-0.05 -0.08,-0.01 -0.11,0.06 -0.29,0.02 -0.47,0.14 -0.07,0.06 -0.08,0.06 -0.1,0.15 -0.02,0.07 -0.03,0.14 -0.04,0.21 -0.01,0.06 -0.01,0.13 -0.02,0.19 0.01,0 0.01,0 0.01,0z"/>
    <path class="fil20" d="M1.19 1.71l0.14 0.05c0.01,-0.02 -0.09,-0.06 -0.1,-0.06 -0.07,-0.02 -0.12,-0.01 -0.16,-0.02l0.02 -0.08c0.07,-0.01 0.31,0.09 0.34,0.07 0,-0.05 -0.1,-0.08 -0.13,-0.09 -0.03,-0.01 -0.06,-0.02 -0.09,-0.03 -0.01,0 -0.09,-0.02 -0.09,-0.02 0,-0.03 0.04,-0.11 0.05,-0.14 0.02,-0.05 0.06,-0.11 0.07,-0.14 -0.02,0.01 -0.09,0.17 -0.1,0.2 -0.01,0.02 -0.08,0.23 -0.08,0.23 0.05,0.01 0.09,0 0.15,0.02 0.01,0 0.1,0.03 0.1,0.04l-0.12 -0.03z"/>
    <path class="fil21" d="M1.3 2.66l0 0 -0.03 -0.02 -0.01 0c-0.02,0.06 0.14,0.05 0.16,0.05 0.04,0 0.07,0 0.1,0.01 0.1,0.04 0.2,-0.01 0.29,-0.01 0.02,0 0.08,0.01 0.1,0 0.01,-0.01 0.07,-0.03 0.05,-0.05 -0.02,0 -0.04,0.03 -0.06,0.03 -0.03,0.01 -0.06,0 -0.09,-0.01 -0.09,-0.01 -0.1,0.02 -0.17,0.02 -0.07,0 -0.11,-0.02 -0.17,-0.02 -0.04,0 -0.14,0.03 -0.17,0z"/>
    <path class="fil22" d="M2.28 1.91l-0.15 0.03 0 -0.01c0.03,-0.02 0.04,-0.01 0.07,-0.04 0.03,-0.02 0.03,-0.06 0.04,-0.07l0.08 0.02c0.01,0.03 -0.03,0.05 -0.04,0.07zm-0.27 -0.04l0.08 0 0 0.01c-0.02,0.01 -0.06,0.01 -0.07,0.01l0.04 0.04 -0.11 0c0.01,0.02 0.23,0.04 0.26,0.02l-0.2 -0.01 0 0c0.03,-0.01 0.26,0.01 0.27,-0.03 0.02,0 0.05,-0.04 0.05,-0.07l-0.07 -0.02c-0.05,-0.01 -0.02,0.03 -0.05,0.05l0 -0.06c-0.01,0 -0.04,0 -0.05,0l0 0c-0.01,0.01 0.02,0.08 -0.06,0.08l0 -0.01 -0.05 -0.03 0 -0.04 -0.04 0 0 0.06z"/>
    <path class="fil23" d="M1.67 2.44c0,-0.01 0.01,-0.02 0.02,-0.03 0.01,-0.01 0.02,-0.02 0.04,-0.01 0,0.02 -0.04,0.04 -0.06,0.04zm-0.16 -0.05c0.02,0 0.03,0.01 0.04,0.02 0.01,0.01 0.04,0.02 0.03,0.03 -0.02,0.01 -0.07,-0.02 -0.07,-0.05zm-0.06 -0.06c0.01,0 0.02,-0.02 0.04,-0.02 0,0.01 -0.01,0.03 -0.02,0.04 -0.02,0.03 0.01,0.04 0.01,0.06 -0.02,0 -0.04,-0.01 -0.04,-0.02 -0.01,-0.03 0,-0.04 0.01,-0.06 -0.04,0.03 -0.02,0.06 0.01,0.09 0,0 0.09,0.03 0.1,0.03 0.02,0 0.04,-0.01 0.06,-0.01 0.07,0 0.02,0.03 0.1,-0.01 0.03,-0.01 0.05,0 0.06,-0.02l-0.02 0.01c-0.01,-0.02 0.01,-0.03 0.01,-0.04 0.01,-0.01 0,-0.03 -0.01,-0.04l0 0.02c-0.1,0.02 -0.1,0.04 -0.21,0.02 -0.02,-0.01 -0.06,-0.01 -0.07,-0.02l0.03 -0.06 -0.01 -0.01 -0.05 0.04z"/>
    <path class="fil24" d="M1.77 3.18c0,0 -0.1,0.03 -0.13,0.03 -0.02,0 -0.05,0 -0.07,0 -0.03,-0.01 -0.06,-0.02 -0.05,0.02 0.02,0.05 0.22,0.04 0.26,0.01l-0.01 -0.06z"/>
    <path class="fil25" d="M2.23 3.84c0.03,0.02 0.02,0.11 0.02,0.17 0.01,-0.01 0.02,-0.01 0.03,-0.02l0 -0.2 0.01 -0.04 0.02 -0.07 0 0c-0.04,-0.02 -0.05,0.04 -0.06,0.06 -0.01,0.03 -0.02,0.07 -0.02,0.1z"/>
    <path class="fil26" d="M2.01 1.87l0 -0.06 0.04 0 0 0.04 0.05 0.03 0 0.01c0.08,0 0.05,-0.07 0.06,-0.08l0 0c0.01,0 0.04,0 0.05,0l0 0.06c0.03,-0.02 0,-0.06 0.05,-0.05 -0.02,-0.02 -0.02,0 -0.05,-0.01 -0.03,-0.02 -0.05,-0.01 -0.07,-0.01 -0.03,0 -0.12,-0.01 -0.14,0.01l0.01 0.05 -0.02 -0.05 -0.1 0.03c0.01,-0.05 0.16,-0.08 0.17,-0.09 -0.04,0 -0.21,0.07 -0.21,0.12l0.13 -0.06 0 0.01 0.03 0.05z"/>
    <path class="fil27" d="M1.02 1.86l0 0 0.02 -0.05 0.03 0c0,0.02 -0.01,0.04 0.01,0.05 0.01,0.01 0.03,0.02 0.04,0.02 0.06,0.01 0.05,-0.03 0.06,-0.07l0.04 0c0.02,0.04 -0.04,0.09 -0.04,0.1l0.01 0c0.03,0 0.05,-0.07 0.06,-0.09l0 -0.01 0.04 0.02 0.09 0.04 0 0c0,-0.03 -0.09,-0.09 -0.11,-0.09l0.07 0.05 0 0.01 -0.1 -0.03c-0.01,0 -0.01,0.03 -0.01,0.04l0 -0.04c-0.03,-0.02 -0.1,-0.01 -0.13,-0.01 -0.05,0 -0.09,-0.01 -0.08,0.06z"/>
    <path class="fil28" d="M1 3.94l-0.01 0.1 0.01 0 0 -0.04 0.02 0.02 0.02 -0.13c0.02,-0.09 0.02,-0.11 -0.02,-0.18 -0.01,-0.03 -0.04,-0.04 -0.04,-0.01 0,0.02 0.04,0.07 0.04,0.11 0,0.05 -0.03,0.09 -0.02,0.13z"/>
    <path class="fil29" d="M1 3.94c-0.02,0.03 -0.02,0.08 -0.01,0.12 0.02,0 0.03,0.01 0.05,0.01 0,0 -0.01,-0.01 0,-0.01l0 -0.17 -0.02 0.13 -0.02 -0.02 0 0.04 -0.01 0 0.01 -0.1z"/>
    <path class="fil30" d="M1.02 1.86c0.02,0 0.05,0 0.06,0.01l0 0c0.01,0 0.01,0 0.01,0.01 -0.01,0.02 -0.03,0.01 -0.04,0.02 0.03,0.03 0.05,0.01 0.07,0.03 -0.02,0.01 -0.08,0 -0.11,0l0.21 0.01 0.05 -0.01 0 -0.01 -0.1 0.01 0.02 -0.02 -0.01 0c0,-0.01 0.06,-0.06 0.04,-0.1l-0.04 0c-0.01,0.04 0,0.08 -0.06,0.07 -0.01,0 -0.03,-0.01 -0.04,-0.02 -0.02,-0.01 -0.01,-0.03 -0.01,-0.05l-0.03 0 -0.02 0.05z"/>
    <path class="fil31" d="M1.9 1.76c0.01,0 0.07,-0.03 0.09,-0.03 0.07,-0.02 0.17,-0.02 0.24,-0.01 0.02,0 0.1,0.03 0.1,0.03 -0.02,-0.05 -0.17,-0.07 -0.22,-0.07 -0.05,0 -0.19,0.03 -0.21,0.08z"/>
    <path class="fil32" d="M2.23 3.84c0.01,0.06 0.02,0.11 0.02,0.17 0,0 0,0 0,0 0,-0.06 0.01,-0.15 -0.02,-0.17zm0.06 0.15c0,-0.08 -0.01,-0.13 -0.01,-0.2l0 0.2c0,0 0.01,0 0.01,0z"/>
    <path class="fil33" d="M2.66 2.04c-0.01,0 -0.03,0.06 -0.04,0.08 -0.01,0.03 -0.05,0.12 -0.07,0.15 -0.01,0.01 -0.02,0.02 -0.02,0.03 -0.01,0.01 -0.01,0.01 -0.02,0.01 0,0.01 0,0.01 -0.02,0.01 0,-0.03 0.01,-0.04 0.01,-0.07 0,-0.03 0.01,-0.03 0.03,-0.05 0.02,-0.02 0.06,-0.07 0.06,-0.1 -0.02,0 -0.02,0.01 -0.05,0.03 -0.01,0.01 -0.02,0.03 -0.03,0.03 0,-0.03 0,-0.07 0.01,-0.1 0,-0.03 0.01,-0.18 0.02,-0.2 0.01,-0.02 0.04,-0.04 0.05,-0.05 -0.01,0 -0.06,0.04 -0.06,0.05 0,0.02 0,0.04 0,0.06 0,0.01 -0.01,0.03 -0.01,0.05 0,0.02 0,0.04 0,0.06 0,0.01 -0.01,0.02 -0.01,0.04 0,0.01 0,0.02 0,0.03 0,0.02 0,0.01 -0.01,0.02 0,0.01 0,0.05 0,0.05 0.02,0.01 0.02,0 0.03,-0.01 0.01,-0.01 0.02,-0.02 0.03,-0.02 0,0.02 -0.01,0.04 -0.03,0.05 -0.04,0.05 -0.03,0 -0.04,0.1 -0.01,0.02 -0.02,0.03 -0.01,0.06 0.05,0 0.14,-0.2 0.15,-0.22 0.01,-0.04 0.03,-0.07 0.03,-0.09z"/>
    <path class="fil34" d="M2.59 1.81c0.01,-0.01 0.03,-0.04 0.06,-0.02 0.02,0.02 0.01,0.04 0.02,0.06 0.03,-0.03 0.01,-0.08 -0.02,-0.1 -0.05,-0.02 -0.08,0.03 -0.1,0.03 0,-0.02 0,-0.05 0.01,-0.07 0.01,-0.01 0.08,-0.04 0.12,0 0.02,0.02 0.02,0.03 0.03,0.06 0.01,0.04 -0.02,0.16 -0.03,0.2 -0.01,0.02 -0.02,0.05 -0.02,0.07l0.01 0c0,-0.03 0.01,-0.05 0.02,-0.07 0,-0.02 0.01,-0.05 0.02,-0.07 0.01,-0.07 0.03,-0.16 -0.04,-0.2 -0.02,-0.02 -0.05,-0.02 -0.07,-0.02 -0.06,0.02 -0.05,0.04 -0.05,0.07 0,0.01 -0.02,0.02 -0.01,0.05 0.02,0 0.03,-0.03 0.08,-0.04 0.03,-0.01 0.07,0.03 0.05,0.06 -0.01,-0.02 -0.01,-0.04 -0.03,-0.04 -0.02,0 -0.05,0.01 -0.05,0.03z"/>
    <path class="fil35" d="M0.92 3.1c0.01,0.01 0.03,0.01 0.05,0.02 0.01,0.01 0.02,0.02 0.04,0.01 0.01,-0.02 0,-0.04 0,-0.05l-0.01 -0.05c0,-0.02 -0.01,-0.02 -0.01,-0.03 0,-0.01 -0.02,-0.14 -0.01,-0.15 0.02,0 0.06,0.06 0.08,0.07 0.02,0.01 0.03,0.02 0.05,0.03 0.01,0.01 0.03,0.02 0.04,0.03 0.05,0.04 0.07,0.04 0.11,0.09 0,0 0.06,0.04 0.07,0.04 -0.02,-0.03 -0.21,-0.16 -0.27,-0.2 -0.03,-0.02 -0.06,-0.07 -0.09,-0.06 -0.01,0.03 0.01,0.1 0.01,0.14 0,0.02 0.01,0.03 0.01,0.04 0.01,0.01 0,0.02 0,0.03 0.01,0.03 0.02,0.04 0.01,0.07l-0.08 -0.03z"/>
    <path class="fil36" d="M1.45 2.33l0 0c-0.01,0.02 -0.02,0.03 -0.01,0.06 0,0.01 0.02,0.02 0.04,0.02 0,-0.02 -0.03,-0.03 -0.01,-0.06 0.01,-0.01 0.02,-0.03 0.02,-0.04 -0.02,0 -0.03,0.02 -0.04,0.02z"/>
    <path class="fil37" d="M1.01 1.93c0.03,0 0.09,0.01 0.11,0 -0.02,-0.02 -0.04,0 -0.07,-0.03 0.01,-0.01 0.03,0 0.04,-0.02 0,-0.01 0,-0.01 -0.01,-0.01l0 0.01c-0.01,0.01 -0.02,0.01 -0.04,0.01 0,0.02 0.03,0.03 0.05,0.04 -0.02,0 -0.06,0 -0.08,-0.01 0,-0.01 0.01,-0.04 0.02,-0.05 0.01,-0.01 0.03,0 0.05,0 -0.01,-0.01 -0.04,-0.01 -0.06,-0.01l0 0c-0.01,0.02 -0.01,0.02 -0.01,0.04 0,0.01 -0.01,0.03 0,0.03z"/>
    <path class="fil38" d="M1.8 2.35c0.01,0.02 0,0.05 -0.03,0.05 0.01,-0.02 0.03,-0.02 0,-0.06 -0.01,-0.02 -0.01,-0.01 -0.01,-0.03 0.01,0.01 0.03,0.03 0.04,0.04zm-0.04 -0.01c0.01,0.01 0.02,0.03 0.01,0.04 0,0.01 -0.02,0.02 -0.01,0.04l0.02 -0.01c0,0 0.02,-0.01 0.02,-0.02 0.02,-0.02 0,-0.05 -0.02,-0.07 -0.01,-0.01 -0.02,-0.02 -0.04,-0.01 0,0.01 0,0 0.01,0.01 0,0.01 0,0.01 0.01,0.02z"/>
    <path class="fil39" d="M1.67 2.57c-0.02,0 -0.03,0.01 -0.05,0 -0.02,0 -0.03,-0.01 -0.05,0 0,0.01 0.01,0.01 0.02,0.02 0.02,0.01 0.03,0.01 0.06,0 0.01,-0.01 0.02,-0.01 0.02,-0.02z"/>
    <path class="fil40" d="M1.55 2.41c-0.01,-0.01 -0.02,-0.02 -0.04,-0.02 0,0.03 0.05,0.06 0.07,0.05 0.01,-0.01 -0.02,-0.02 -0.03,-0.03z"/>
    <path class="fil41" d="M1.77 2.4c0.03,0 0.04,-0.03 0.03,-0.05 -0.01,-0.01 -0.03,-0.03 -0.04,-0.04 0,0.02 0,0.01 0.01,0.03 0.03,0.04 0.01,0.04 0,0.06z"/>
    <path class="fil42" d="M1.67 2.44c0.02,0 0.06,-0.02 0.06,-0.04 -0.02,-0.01 -0.03,0 -0.04,0.01 -0.01,0.01 -0.02,0.02 -0.02,0.03z"/>
   </g>
  </g>
 </g>
</svg>
